<mxfile host="app.diagrams.net" modified="2022-03-23T06:40:47.924Z" agent="5.0 (Windows NT 10.0; Win64; x64) AppleWebKit/537.36 (KHTML, like Gecko) Chrome/99.0.4844.82 Safari/537.36" etag="RltGKCizI1aXCSAjs8bY" version="17.1.3" type="github">
  <diagram id="URz8KDtVMiDMUdbfBXN9" name="Page-1">
    <mxGraphModel dx="1038" dy="539" grid="1" gridSize="10" guides="1" tooltips="1" connect="1" arrows="1" fold="1" page="1" pageScale="1" pageWidth="850" pageHeight="1100" math="0" shadow="0">
      <root>
        <mxCell id="0" />
        <mxCell id="1" parent="0" />
        <mxCell id="Ja0ZLkVs4iCAGesKvOIu-1" value="" style="swimlane;startSize=0;" vertex="1" parent="1">
          <mxGeometry x="370" y="10" width="450" height="500" as="geometry" />
        </mxCell>
        <mxCell id="Ja0ZLkVs4iCAGesKvOIu-5" value="Group Check in" style="ellipse;whiteSpace=wrap;html=1;" vertex="1" parent="Ja0ZLkVs4iCAGesKvOIu-1">
          <mxGeometry x="20" y="10" width="140" height="70" as="geometry" />
        </mxCell>
        <mxCell id="Ja0ZLkVs4iCAGesKvOIu-6" value="Check In" style="ellipse;whiteSpace=wrap;html=1;" vertex="1" parent="Ja0ZLkVs4iCAGesKvOIu-1">
          <mxGeometry x="20" y="100" width="140" height="70" as="geometry" />
        </mxCell>
        <mxCell id="Ja0ZLkVs4iCAGesKvOIu-7" value="Baggage Check In" style="ellipse;whiteSpace=wrap;html=1;" vertex="1" parent="Ja0ZLkVs4iCAGesKvOIu-1">
          <mxGeometry x="20" y="200" width="140" height="70" as="geometry" />
        </mxCell>
        <mxCell id="Ja0ZLkVs4iCAGesKvOIu-8" value="Baggage Handelling" style="ellipse;whiteSpace=wrap;html=1;" vertex="1" parent="Ja0ZLkVs4iCAGesKvOIu-1">
          <mxGeometry x="210" y="200" width="140" height="70" as="geometry" />
        </mxCell>
        <mxCell id="Ja0ZLkVs4iCAGesKvOIu-9" value="Security Check" style="ellipse;whiteSpace=wrap;html=1;" vertex="1" parent="Ja0ZLkVs4iCAGesKvOIu-1">
          <mxGeometry x="20" y="300" width="140" height="70" as="geometry" />
        </mxCell>
        <mxCell id="Ja0ZLkVs4iCAGesKvOIu-10" value="Body Check" style="ellipse;whiteSpace=wrap;html=1;" vertex="1" parent="Ja0ZLkVs4iCAGesKvOIu-1">
          <mxGeometry x="20" y="400" width="140" height="70" as="geometry" />
        </mxCell>
        <mxCell id="Ja0ZLkVs4iCAGesKvOIu-12" value="Service Needed" style="ellipse;whiteSpace=wrap;html=1;" vertex="1" parent="Ja0ZLkVs4iCAGesKvOIu-1">
          <mxGeometry x="230" y="40" width="140" height="70" as="geometry" />
        </mxCell>
        <mxCell id="Ja0ZLkVs4iCAGesKvOIu-22" value="" style="endArrow=block;dashed=1;endFill=0;endSize=12;html=1;rounded=0;entryX=0;entryY=0.5;entryDx=0;entryDy=0;" edge="1" parent="Ja0ZLkVs4iCAGesKvOIu-1" target="Ja0ZLkVs4iCAGesKvOIu-8">
          <mxGeometry width="160" relative="1" as="geometry">
            <mxPoint x="160" y="230" as="sourcePoint" />
            <mxPoint x="320" y="230" as="targetPoint" />
          </mxGeometry>
        </mxCell>
        <mxCell id="Ja0ZLkVs4iCAGesKvOIu-2" value="Passenger" style="shape=umlActor;verticalLabelPosition=bottom;verticalAlign=top;html=1;outlineConnect=0;" vertex="1" parent="1">
          <mxGeometry x="200" y="200" width="60" height="120" as="geometry" />
        </mxCell>
        <mxCell id="Ja0ZLkVs4iCAGesKvOIu-3" value="Guide" style="shape=umlActor;verticalLabelPosition=bottom;verticalAlign=top;html=1;outlineConnect=0;" vertex="1" parent="1">
          <mxGeometry x="200" y="20" width="55" height="120" as="geometry" />
        </mxCell>
        <mxCell id="Ja0ZLkVs4iCAGesKvOIu-4" value="Security" style="shape=umlActor;verticalLabelPosition=bottom;verticalAlign=top;html=1;outlineConnect=0;" vertex="1" parent="1">
          <mxGeometry x="206.5" y="380" width="47" height="110" as="geometry" />
        </mxCell>
        <mxCell id="Ja0ZLkVs4iCAGesKvOIu-13" value="" style="endArrow=none;html=1;rounded=0;entryX=0;entryY=0.5;entryDx=0;entryDy=0;" edge="1" parent="1" target="Ja0ZLkVs4iCAGesKvOIu-5">
          <mxGeometry relative="1" as="geometry">
            <mxPoint x="290" y="90" as="sourcePoint" />
            <mxPoint x="450" y="90" as="targetPoint" />
          </mxGeometry>
        </mxCell>
        <mxCell id="Ja0ZLkVs4iCAGesKvOIu-14" value="" style="endArrow=none;html=1;rounded=0;entryX=0.037;entryY=0.689;entryDx=0;entryDy=0;entryPerimeter=0;" edge="1" parent="1" target="Ja0ZLkVs4iCAGesKvOIu-12">
          <mxGeometry relative="1" as="geometry">
            <mxPoint x="290" y="90" as="sourcePoint" />
            <mxPoint x="450" y="90" as="targetPoint" />
          </mxGeometry>
        </mxCell>
        <mxCell id="Ja0ZLkVs4iCAGesKvOIu-15" value="" style="endArrow=none;html=1;rounded=0;entryX=0;entryY=0.5;entryDx=0;entryDy=0;" edge="1" parent="1" target="Ja0ZLkVs4iCAGesKvOIu-6">
          <mxGeometry relative="1" as="geometry">
            <mxPoint x="290" y="240" as="sourcePoint" />
            <mxPoint x="450" y="240" as="targetPoint" />
          </mxGeometry>
        </mxCell>
        <mxCell id="Ja0ZLkVs4iCAGesKvOIu-16" value="" style="endArrow=none;html=1;rounded=0;entryX=0;entryY=0.5;entryDx=0;entryDy=0;" edge="1" parent="1" target="Ja0ZLkVs4iCAGesKvOIu-7">
          <mxGeometry relative="1" as="geometry">
            <mxPoint x="290" y="240" as="sourcePoint" />
            <mxPoint x="450" y="240" as="targetPoint" />
          </mxGeometry>
        </mxCell>
        <mxCell id="Ja0ZLkVs4iCAGesKvOIu-17" value="" style="endArrow=none;html=1;rounded=0;entryX=0;entryY=0.5;entryDx=0;entryDy=0;" edge="1" parent="1" target="Ja0ZLkVs4iCAGesKvOIu-9">
          <mxGeometry relative="1" as="geometry">
            <mxPoint x="290" y="240" as="sourcePoint" />
            <mxPoint x="450" y="240" as="targetPoint" />
          </mxGeometry>
        </mxCell>
        <mxCell id="Ja0ZLkVs4iCAGesKvOIu-19" value="" style="endArrow=none;html=1;rounded=0;entryX=0.04;entryY=0.803;entryDx=0;entryDy=0;entryPerimeter=0;" edge="1" parent="1" target="Ja0ZLkVs4iCAGesKvOIu-9">
          <mxGeometry relative="1" as="geometry">
            <mxPoint x="270" y="420" as="sourcePoint" />
            <mxPoint x="413.5" y="435" as="targetPoint" />
          </mxGeometry>
        </mxCell>
        <mxCell id="Ja0ZLkVs4iCAGesKvOIu-20" value="" style="endArrow=none;html=1;rounded=0;entryX=0;entryY=0.5;entryDx=0;entryDy=0;" edge="1" parent="1" target="Ja0ZLkVs4iCAGesKvOIu-10">
          <mxGeometry relative="1" as="geometry">
            <mxPoint x="270" y="420" as="sourcePoint" />
            <mxPoint x="430" y="420" as="targetPoint" />
          </mxGeometry>
        </mxCell>
      </root>
    </mxGraphModel>
  </diagram>
</mxfile>
